<svg width="232" height="39" viewBox="0 0 232 39" preserveAspectRatio="xMidYMid meet" xmlns="http://www.w3.org/2000/svg" xmlns:xlink="http://www.w3.org/1999/xlink"><defs><path id="a" d="M0 0h232v39H0z"/></defs><g fill="none" fill-rule="evenodd"><mask id="b" fill="#fff"><use xlink:href="#a"/></mask><path d="M40.484 27.895l-1.749-15.227L5.16 14.906 0 15.25l1.45 12.624 7.799.005-.832-7.248 7.758-.517.892 7.769 7.8.004-.952-8.29 7.702-.513 1.01 8.807 7.857.004zm5.74-18.33l7.74-.517-.46-4.016-7.74.516.46 4.016zm9.905 18.339l-1.868-16.27-7.74.515L48.33 27.9l7.8.004zm32.036.017L86.05 9.514l-2.916.195-3.294.219-10.054.67-7.74.516 1.928 16.795 7.8.003-1.311-11.417 8.469-.564 1.376 11.986 7.856.004zm5.376-21.51l7.74-.517-.462-4.016-7.74.516.462 4.016zm10.27 21.519l-2.234-19.45-7.74.515 2.174 18.93 7.8.005zm47.279.026l-2.596-22.604-38.735 2.582 2.297 20 7.8.005-1.68-14.625 7.758-.517 1.74 15.146 7.798.004-1.798-15.665 7.702-.514 1.858 16.184 7.856.004zm32.833.018L181.076 3.18l-7.74.516 2.14 18.63-5.328.356-2.637.175-.56.038-2.14-18.63-7.74.515 2.663 23.18 24.19.014zM232 28l-3.215-28-30.996 2.066-2.58.172-5.16.344 2.917 25.397 7.8.004-2.3-20.02 7.759-.517 2.359 20.541 7.798.004-2.418-21.061 7.702-.513 2.478 21.579L232 28zM130.418 38.892h1.713l1.88-6.62h1.658l.331-1.164h-5.03l-.33 1.163h1.658l-1.88 6.621zm-6.355 0l1.38-4.863h.029l.801 4.863h1.492l2.211-7.784h-1.547l-1.265 4.452h-.028l-.82-4.452h-1.59l-2.21 7.784h1.547zm-5.893-1.725h1.879l-.186 1.725h1.658l.374-7.784h-2.128l-4.049 7.784h1.658l.794-1.725zm2.206-4.507h.028l-.273 3.343h-1.382l1.627-3.343zm-8.283 3.04c.304 0 .666-.01.894-.032l.3 3.224h1.74l-.449-3.525c.639-.205 1.404-.712 1.76-1.963.472-1.66-.329-2.296-2.249-2.296h-2.404l-2.211 7.784h1.713l.906-3.191zm.993-3.493h.608c.925 0 1.194.27.93 1.197-.263.927-.685 1.197-1.61 1.197h-.608l.68-2.394zm-9.963 4.723c-.38 1.337.407 2.07 2.037 2.07s2.834-.733 3.213-2.07l1.654-5.822h-1.713l-1.67 5.876c-.162.571-.531.851-1.153.851s-.832-.28-.67-.851l1.67-5.876h-1.714l-1.654 5.822zm-4.902.237h1.879l-.186 1.725h1.658l.373-7.784h-2.127l-4.049 7.784h1.658l.794-1.725zm2.206-4.507h.028l-.273 3.343H98.8l1.627-3.343zm-8.128 6.232h1.713l1.88-6.62h1.659l.33-1.164h-5.028l-.331 1.163h1.657l-1.88 6.621zm-.67-6.005c.16-1.1-.445-1.887-1.84-1.887-1.686 0-2.852.7-3.204 1.94-.634 2.232 2.73 2.642 2.293 4.184-.132.463-.603.711-1.197.711-.553 0-.843-.388-.689-1.175l-1.682.184c-.26 1.164.37 2.156 1.958 2.156 1.602 0 2.91-.712 3.274-1.995.6-2.113-2.7-2.749-2.324-4.075.138-.485.522-.766 1.074-.766.387 0 .788.194.667.863l1.67-.14zm-7.812 6.005l.33-1.164h-3.066l.649-2.286h2.21l.331-1.165h-2.21l.57-2.006h2.873l.33-1.163h-4.586l-2.211 7.784h4.78zm-9.069-3.191c.305 0 .667-.01.894-.033l.3 3.224h1.74l-.448-3.525c.638-.205 1.404-.712 1.76-1.963.47-1.66-.33-2.296-2.25-2.296H74.34l-2.21 7.784h1.712l.906-3.191zm.993-3.494h.608c.926 0 1.195.27.931 1.197-.263.927-.686 1.197-1.611 1.197h-.608l.68-2.394zm-10.967 3.494c.304 0 .667-.01.893-.033l.3 3.224h1.741l-.449-3.525c.639-.205 1.405-.712 1.76-1.963.471-1.66-.33-2.296-2.25-2.296h-2.403l-2.211 7.784h1.712l.907-3.191zm.993-3.494h.607c.926 0 1.195.27.932 1.197-.264.927-.686 1.197-1.612 1.197h-.607l.68-2.394zm-7.958 4.96h1.879l-.186 1.725h1.658l.374-7.784h-2.128l-4.048 7.784h1.657l.794-1.725zm2.206-4.507h.028l-.272 3.343h-1.382l1.626-3.343zm-10.902 6.232h2.708c1.948 0 2.956-.97 3.32-2.253.285-1.003-.073-1.542-.858-1.844.903-.26 1.46-.96 1.65-1.629.378-1.325-.229-2.058-2.067-2.058h-2.542l-2.21 7.784zm3.612-6.685h.65c.76 0 1.011.378.806 1.1-.184.647-.779.992-1.428.992h-.622l.594-2.092zm-.907 3.192h.553c1.023 0 1.296.398 1.07 1.197-.224.787-.672 1.197-1.584 1.197h-.718l.68-2.394zm-10.06.302c.304 0 .666-.01.893-.033l.3 3.224h1.741l-.449-3.525c.638-.205 1.404-.712 1.76-1.963.471-1.66-.33-2.296-2.25-2.296H41.35l-2.211 7.784h1.712l.907-3.191zm.993-3.494h.607c.926 0 1.195.27.932 1.197-.264.927-.686 1.197-1.612 1.197h-.607l.68-2.394zm-4.966 6.685l.33-1.164h-3.067l.65-2.286h2.21l.331-1.165h-2.21l.57-2.006h2.873l.33-1.163h-4.586l-2.211 7.784h4.78zm-11.688 0h2.542c1.768 0 2.922-.755 3.376-2.35l.876-3.084c.453-1.595-.272-2.35-2.04-2.35h-2.542l-2.212 7.784zm3.612-6.685h.594c.912 0 1.153.27.92 1.09l-.967 3.406c-.233.82-.628 1.09-1.54 1.09h-.593l1.586-5.586zm-4.662 6.685l.331-1.164h-2.694l1.88-6.62h-1.712l-2.212 7.784h4.407zM14.372 36.93c-.38 1.337.407 2.07 2.037 2.07s2.834-.733 3.213-2.07l1.654-5.822h-1.713l-1.669 5.876c-.162.571-.532.851-1.154.851-.622 0-.832-.28-.67-.851l1.67-5.876h-1.714l-1.654 5.822zm-4.085-3.903c.165-.582.466-.863 1.157-.863.69 0 .832.28.666.863l-1.12 3.946c-.166.582-.467.862-1.157.862-.691 0-.833-.28-.667-.862l1.12-3.946zm-2.844 3.978C7.131 38.105 7.706 39 9.502 39c1.796 0 2.879-.895 3.191-1.995l1.14-4.01c.312-1.1-.262-1.995-2.058-1.995-1.796 0-2.88.895-3.192 1.995l-1.14 4.01zM0 38.892h2.707c1.949 0 2.957-.97 3.321-2.253.285-1.003-.073-1.542-.858-1.844.903-.26 1.46-.96 1.65-1.629.377-1.325-.23-2.058-2.067-2.058H2.211L0 38.892zm3.612-6.685h.65c.76 0 1.01.378.806 1.1-.184.647-.78.992-1.429.992h-.622l.595-2.092zM2.705 35.4h.553c1.023 0 1.296.398 1.07 1.197-.224.787-.673 1.197-1.584 1.197h-.719l.68-2.394z" fill="#383838" mask="url(#b)"/></g></svg>