<!DOCTYPE svg PUBLIC "-//W3C//DTD SVG 20010904//EN" "http://www.w3.org/TR/2001/REC-SVG-20010904/DTD/svg10.dtd">
<svg version="1.0" xmlns="http://www.w3.org/2000/svg" width="1140px" height="250px" viewBox="0 0 11400 2500" preserveAspectRatio="xMidYMid meet">
<g id="layer1" fill="#000000" stroke="none">
 <path d="M25 2468 c3 -18 10 -53 16 -78 6 -25 15 -64 20 -87 5 -24 13 -62 18 -85 16 -70 32 -140 43 -185 l11 -43 83 0 c128 0 163 21 164 96 0 49 -21 105 -50 132 -18 17 -19 20 -5 32 20 16 20 96 0 144 -20 47 -68 92 -106 100 -18 3 -70 6 -116 6 l-85 0 7 -32z m179 -77 c27 -30 37 -78 20 -96 -30 -30 -50 -18 -62 36 -7 28 -12 57 -12 65 0 20 34 17 54 -5z m49 -233 c24 -32 17 -78 -13 -78 -24 0 -28 8 -39 65 -8 43 -7 46 12 43 11 -2 29 -15 40 -30z"/>
 <path d="M405 2475 c-27 -26 -33 -76 -16 -131 5 -16 14 -53 20 -81 6 -29 16 -77 22 -105 22 -102 52 -145 118 -167 66 -22 137 -5 161 38 13 25 13 84 0 136 -13 50 -25 104 -39 173 -25 124 -67 162 -175 162 -58 0 -70 -3 -91 -25z m143 -87 c13 -26 53 -202 59 -265 4 -38 3 -43 -15 -43 -11 0 -24 6 -30 13 -11 12 -72 271 -72 302 0 24 45 18 58 -7z"/>
 <path d="M745 2475 c-27 -26 -31 -67 -15 -140 12 -54 48 -217 63 -285 l12 -55 53 -3 c62 -4 61 -7 31 116 -11 48 -25 110 -31 137 -6 28 -14 63 -19 79 -16 52 -11 86 11 86 25 0 48 -35 59 -91 21 -107 53 -257 62 -291 10 -37 10 -38 59 -38 46 0 50 2 50 24 0 12 -4 36 -9 52 -5 16 -14 56 -21 89 -7 33 -16 74 -20 90 -4 17 -13 57 -20 90 -27 127 -68 165 -174 165 -58 0 -70 -3 -91 -25z"/>
 <path d="M1030 2497 c0 -2 9 -46 21 -98 11 -52 27 -125 35 -164 15 -74 29 -133 46 -202 l11 -43 50 0 50 0 -6 43 c-4 23 -11 60 -16 82 -5 22 -14 65 -21 95 -7 30 -16 73 -21 95 -5 22 -12 55 -15 73 l-7 32 62 0 c61 0 61 0 61 29 0 60 -1 61 -131 61 -65 0 -119 -2 -119 -3z"/>
 <path d="M1302 2479 c3 -13 18 -82 33 -154 15 -71 31 -146 35 -165 4 -19 13 -57 18 -85 19 -89 14 -85 111 -85 141 0 173 32 153 155 -32 203 -62 290 -115 327 -27 19 -48 23 -136 27 l-104 3 5 -23z m182 -91 c25 -40 73 -264 63 -292 -4 -9 -18 -16 -32 -16 -19 0 -25 5 -25 21 0 12 -4 38 -10 58 -22 83 -50 211 -50 230 0 29 35 28 54 -1z"/>
 <path d="M1645 2458 c4 -24 15 -77 25 -118 10 -41 25 -111 35 -155 9 -44 22 -105 29 -135 l13 -55 121 -3 c133 -3 128 -5 116 57 l-6 31 -73 0 -73 0 -6 38 c-4 20 -9 45 -12 55 -5 15 2 17 51 17 49 0 56 2 51 18 -3 9 -8 29 -11 44 -6 25 -11 27 -63 30 l-57 3 -7 44 c-4 23 -10 52 -13 62 -6 18 0 19 70 19 66 0 76 2 71 16 -3 9 -6 29 -6 45 l0 29 -131 0 -131 0 7 -42z"/>
 <path d="M1944 2468 c3 -18 10 -51 15 -73 5 -22 14 -65 21 -95 7 -30 16 -71 20 -90 17 -74 32 -146 39 -180 l6 -35 88 -3 c98 -3 151 14 161 51 18 70 -2 154 -51 208 l-35 39 11 75 c6 42 11 89 11 105 0 29 -1 30 -49 30 -58 0 -57 2 -66 -118 -5 -53 -11 -82 -18 -79 -6 2 -20 46 -32 98 l-20 94 -54 3 -54 3 7 -33z m220 -274 c19 -19 29 -53 24 -85 -2 -17 -10 -25 -28 -27 -23 -3 -26 2 -38 50 -6 30 -12 59 -12 66 0 17 36 15 54 -4z"/>
 <path d="M2432 2474 c7 -36 51 -246 81 -379 l23 -100 102 0 c92 0 104 2 124 23 19 19 23 33 22 83 -1 50 -6 66 -31 97 -27 34 -28 39 -16 62 30 54 -9 179 -66 217 -19 13 -54 18 -135 21 l-109 4 5 -28z m187 -90 c25 -32 28 -89 5 -98 -38 -15 -45 -4 -67 102 -7 32 35 30 62 -4z m35 -210 c36 -36 28 -94 -14 -94 -12 0 -19 10 -23 33 -4 17 -9 42 -13 55 -5 18 -2 22 14 22 11 0 28 -7 36 -16z"/>
 <path d="M2740 2480 c0 -11 11 -43 24 -72 13 -29 56 -135 96 -235 l71 -183 62 0 62 0 -3 132 c-1 73 -5 188 -8 256 l-6 122 -50 0 -50 0 4 -55 3 -55 -36 0 c-34 0 -36 2 -54 55 l-19 55 -48 0 c-41 0 -48 -3 -48 -20z m209 -227 l0 -48 -19 40 c-24 52 -24 55 0 55 17 0 20 -6 19 -47z"/>
 <path d="M3073 2468 c2 -18 14 -76 26 -128 34 -146 61 -271 68 -313 l6 -39 104 4 c102 3 105 4 130 33 23 26 25 35 20 92 -7 72 -25 112 -64 142 l-27 22 12 88 c19 138 21 131 -42 131 l-54 0 -7 -100 c-5 -75 -11 -100 -21 -100 -8 0 -14 10 -14 21 0 12 -4 39 -10 60 -5 22 -15 57 -20 79 l-11 40 -50 0 -51 0 5 -32z m221 -274 c19 -19 29 -53 24 -85 -2 -17 -10 -25 -29 -27 -23 -3 -26 2 -37 48 -7 28 -12 58 -12 66 0 19 35 18 54 -2z"/>
 <path d="M3560 2476 c0 -12 4 -36 9 -52 5 -16 14 -56 21 -89 7 -33 18 -87 26 -120 7 -33 21 -98 31 -144 l17 -83 104 4 c101 3 105 5 129 33 23 26 25 35 20 92 -7 72 -25 112 -64 142 l-27 22 12 88 c19 138 21 131 -42 131 l-54 0 -7 -100 c-6 -71 -11 -100 -20 -100 -8 0 -16 15 -20 33 -3 17 -10 50 -15 72 -5 22 -11 52 -15 68 -5 25 -9 27 -55 27 -46 0 -50 -2 -50 -24z m224 -282 c19 -19 29 -53 24 -85 -2 -17 -10 -25 -28 -27 -23 -3 -27 2 -38 43 -17 65 -16 85 7 85 11 0 27 -7 35 -16z"/>
 <path d="M3895 2483 c3 -10 11 -40 17 -68 5 -27 14 -66 18 -85 8 -36 16 -71 50 -228 11 -51 22 -98 25 -103 4 -5 60 -9 127 -9 120 0 120 0 114 23 -3 12 -6 32 -6 45 0 21 -4 22 -74 22 -82 0 -78 -3 -91 73 l-6 37 52 0 52 0 -7 31 c-3 17 -6 38 -6 45 0 10 -16 14 -59 14 l-58 0 -6 38 c-4 20 -9 49 -13 65 l-6 27 71 0 71 0 0 29 c0 61 0 61 -142 61 -120 0 -130 -1 -123 -17z"/>
 <path d="M4242 2493 c-21 -8 -42 -60 -42 -103 0 -32 4 -40 19 -40 10 0 33 -3 50 -6 28 -6 31 -4 31 18 0 48 47 65 69 24 11 -19 10 -28 -2 -53 -9 -16 -23 -36 -33 -44 -37 -30 -74 -102 -74 -143 1 -86 81 -166 168 -166 66 0 101 34 102 96 0 45 -12 54 -72 54 -22 0 -28 -5 -28 -20 0 -25 -25 -36 -45 -20 -26 22 -17 60 27 114 24 28 47 54 53 58 5 4 10 38 10 76 0 60 -4 73 -28 106 -16 20 -40 41 -54 47 -25 9 -129 11 -151 2z"/>
 <path d="M4553 2458 c4 -24 11 -61 16 -83 5 -22 14 -65 21 -95 7 -30 16 -73 21 -95 25 -111 26 -105 -18 -105 l-39 0 10 -45 11 -45 132 0 c145 0 143 -1 122 59 -10 27 -15 31 -49 31 -35 0 -39 3 -45 33 -3 17 -10 51 -15 75 -6 23 -14 62 -20 87 -22 99 -32 142 -42 183 l-11 42 -50 0 -50 0 6 -42z"/>
 <path d="M4725 2473 c3 -16 47 -130 98 -255 l91 -228 65 0 64 0 -7 143 c-3 78 -9 193 -13 255 l-6 112 -49 0 -48 0 0 -55 0 -55 -34 0 c-33 0 -35 2 -51 55 l-18 55 -49 0 c-50 0 -50 0 -43 -27z m209 -189 c7 -17 8 -100 2 -93 -2 2 -14 28 -25 57 -20 50 -20 52 -2 52 10 0 22 -7 25 -16z"/>
 <path d="M5103 2483 c-36 -32 -37 -70 -3 -223 5 -25 20 -94 32 -155 l23 -110 54 -3 53 -3 -7 43 c-3 24 -10 57 -15 73 -4 17 -13 57 -20 90 -6 33 -16 69 -20 81 -5 12 -11 46 -15 77 -7 56 -7 57 17 57 16 0 29 -8 35 -22 11 -23 16 -42 53 -208 11 -52 26 -116 32 -142 l12 -48 48 0 c45 0 48 2 48 26 0 14 -9 65 -20 112 -26 110 -36 154 -51 222 -25 115 -66 150 -178 150 -41 0 -64 -5 -78 -17z"/>
 <path d="M5393 2468 c2 -18 14 -76 26 -128 54 -233 64 -277 70 -310 l6 -35 104 0 c101 0 103 0 128 30 23 26 25 35 20 92 -7 72 -25 112 -64 142 l-27 22 12 88 c19 139 21 133 -40 129 l-53 -3 -9 -97 c-5 -54 -13 -98 -17 -98 -13 0 -26 31 -33 80 -4 25 -11 62 -17 83 -10 37 -10 37 -60 37 l-51 0 5 -32z m221 -274 c19 -19 29 -53 24 -85 -2 -17 -10 -25 -28 -27 -23 -3 -26 2 -38 50 -6 30 -12 59 -12 66 0 17 36 15 54 -4z"/>
 <path d="M5700 2481 c0 -20 11 -50 77 -201 11 -25 42 -100 68 -167 l49 -123 58 0 58 0 0 143 c0 78 -3 193 -7 255 l-6 113 -51 -3 -50 -3 3 -52 2 -53 -34 0 c-34 0 -36 2 -52 55 l-18 55 -48 0 c-41 0 -49 -3 -49 -19z m210 -228 c0 -53 -9 -50 -26 8 -11 36 -10 39 7 39 16 0 19 -8 19 -47z"/>
 <path d="M6033 2463 c4 -21 11 -56 16 -78 5 -22 14 -65 21 -95 7 -30 16 -71 20 -90 23 -100 31 -138 37 -173 l6 -38 51 3 51 3 14 103 c8 56 16 100 18 98 3 -3 15 -49 27 -103 l21 -98 48 -3 c35 -2 47 0 47 11 0 22 -19 115 -60 287 -12 52 -27 120 -34 150 l-11 55 -45 3 -46 3 -12 -84 c-7 -45 -12 -97 -12 -114 0 -46 -16 -49 -24 -5 -3 20 -10 57 -16 82 -6 25 -13 62 -17 83 l-6 37 -50 0 -50 0 6 -37z"/>
 <path d="M6420 2474 c0 -14 9 -65 21 -112 11 -48 25 -109 31 -137 6 -27 14 -63 19 -79 17 -57 13 -66 -32 -66 -35 0 -40 -3 -34 -17 3 -10 9 -30 12 -45 l6 -28 133 0 c146 0 144 -1 123 59 -10 27 -15 31 -49 31 l-38 0 -17 78 c-9 42 -25 113 -35 157 -10 44 -24 104 -30 133 l-12 52 -49 0 c-46 0 -49 -2 -49 -26z"/>
 <path d="M9466 1768 c-3 -29 -10 -111 -16 -183 -6 -71 -15 -175 -20 -230 -9 -98 -18 -200 -40 -455 -6 -69 -15 -170 -20 -225 -5 -55 -14 -158 -20 -230 -6 -72 -15 -163 -19 -203 -9 -88 -11 -87 114 -96 50 -3 140 -11 200 -16 149 -13 328 -29 455 -40 58 -5 158 -14 223 -20 114 -10 243 -21 457 -40 242 -22 348 -30 406 -30 l61 0 11 113 c12 114 23 231 42 457 10 122 20 227 40 448 5 59 14 166 20 237 6 72 15 171 20 220 6 50 13 147 16 218 l7 127 -202 0 -201 0 0 -37 c0 -21 -4 -74 -10 -118 -5 -44 -14 -141 -20 -215 -6 -74 -15 -178 -20 -230 -5 -52 -14 -151 -20 -220 -41 -469 -52 -580 -59 -575 -4 2 -68 8 -144 14 -209 17 -197 12 -197 85 0 33 4 97 10 141 5 44 14 139 20 210 14 168 35 412 60 680 5 55 12 137 15 183 l6 82 -199 0 -199 0 -6 -37 c-4 -21 -9 -69 -12 -108 -3 -38 -10 -117 -15 -175 -5 -58 -14 -161 -20 -230 -6 -69 -15 -170 -20 -225 -5 -55 -14 -158 -20 -230 -6 -71 -16 -173 -21 -225 l-11 -95 -81 6 c-45 4 -126 10 -179 14 l-97 8 4 46 c4 45 14 157 35 399 24 271 30 333 40 457 6 72 15 166 20 210 6 44 10 104 10 133 l0 52 -199 0 -200 0 -5 -52z"/>
 <path d="M56 1748 c-3 -35 -10 -121 -16 -193 -6 -71 -15 -166 -20 -210 -5 -44 -12 -146 -16 -226 l-7 -146 89 -6 c49 -4 139 -12 199 -17 61 -6 162 -15 225 -20 63 -6 162 -15 220 -20 202 -18 341 -30 453 -40 134 -12 314 -27 457 -40 58 -6 144 -13 191 -16 l86 -7 6 99 c4 55 11 149 17 209 16 186 31 345 40 450 4 55 12 133 16 173 l7 72 -205 0 -205 0 -7 -82 c-3 -46 -11 -132 -16 -193 -6 -60 -13 -152 -17 -203 l-6 -94 -30 6 c-16 3 -93 11 -170 17 -78 5 -145 13 -149 15 -9 6 -4 111 12 264 5 47 12 127 15 178 l7 92 -200 0 -199 0 -11 -102 c-12 -108 -19 -180 -29 -314 l-6 -82 -81 5 c-44 2 -111 8 -148 14 -37 5 -83 9 -103 9 -31 0 -35 3 -31 18 6 19 23 201 33 360 l6 92 -201 0 -200 0 -6 -62z"/>
 <path d="M2366 1793 c-3 -10 -10 -76 -16 -148 -6 -71 -15 -179 -21 -240 -10 -109 -18 -207 -39 -460 -6 -71 -13 -138 -16 -148 -8 -24 -34 -20 344 -53 l62 -6 0 43 c0 23 4 81 9 128 6 47 15 145 21 216 6 72 15 175 20 230 5 55 14 156 20 225 6 69 13 149 15 178 l5 52 -199 0 c-181 0 -200 -2 -205 -17z"/>
 <path d="M3130 1769 c0 -22 -4 -82 -10 -132 -10 -103 -24 -250 -40 -437 -6 -69 -15 -170 -20 -225 -5 -55 -12 -137 -15 -182 l-6 -81 28 -6 c15 -4 84 -11 153 -16 137 -11 286 -24 455 -39 61 -6 202 -17 314 -26 112 -8 213 -18 225 -21 22 -5 23 -1 35 133 6 76 16 183 21 238 18 196 30 322 40 450 6 72 15 169 21 216 5 47 9 104 9 127 l0 42 -205 0 -205 0 0 -57 c0 -31 -4 -95 -9 -142 -6 -47 -15 -144 -21 -216 -6 -71 -16 -181 -22 -243 l-12 -114 -51 6 c-27 3 -86 8 -130 11 -44 3 -109 8 -144 11 l-64 6 6 96 c4 54 11 147 17 207 6 61 15 160 19 220 5 61 13 134 17 163 l7 52 -207 0 -206 0 0 -41z"/>
 <path d="M4701 1713 c-6 -54 -15 -154 -21 -223 -10 -120 -18 -212 -41 -460 -17 -198 -28 -323 -34 -392 l-5 -66 67 -6 c38 -3 113 -10 168 -16 55 -6 114 -10 131 -10 l32 0 10 98 c6 53 16 158 22 232 6 74 15 176 20 225 5 50 14 151 20 225 6 74 15 176 20 225 5 50 12 129 15 178 l7 87 -200 0 -200 0 -11 -97z"/>
 <path d="M5490 1753 c0 -31 -4 -95 -9 -142 -6 -47 -15 -144 -21 -216 -6 -71 -15 -175 -20 -230 -5 -55 -14 -156 -20 -225 -6 -69 -15 -177 -21 -240 -5 -63 -11 -134 -13 -156 l-3 -41 81 -7 c44 -4 126 -11 181 -16 255 -23 343 -31 453 -40 64 -6 164 -15 222 -20 278 -25 344 -30 455 -40 66 -6 170 -15 230 -21 61 -5 153 -12 206 -16 l97 -6 6 89 c4 49 11 132 16 184 5 52 14 151 20 220 6 69 15 172 20 230 5 58 14 161 20 230 6 69 17 200 25 291 8 92 15 181 15 198 l0 31 -200 0 -199 0 -6 -32 c-3 -18 -10 -94 -15 -168 -6 -74 -15 -184 -21 -245 -13 -149 -25 -294 -39 -455 -6 -74 -13 -136 -15 -138 -2 -2 -52 1 -112 7 -59 6 -139 14 -177 17 l-68 6 7 61 c3 34 11 114 16 177 6 63 14 162 19 220 5 58 16 193 24 300 9 107 18 207 21 223 l5 27 -203 -2 -202 -3 -8 -80 c-11 -116 -41 -455 -57 -650 -6 -71 -14 -154 -16 -183 l-6 -53 -81 6 c-45 3 -126 11 -181 17 l-99 11 7 66 c4 36 11 116 16 176 5 61 14 162 20 225 5 63 14 171 20 240 5 69 12 149 16 178 l5 52 -205 0 -206 0 0 -57z"/>
 <path d="M7837 1788 c-3 -13 -8 -59 -12 -103 -3 -44 -10 -125 -15 -180 -5 -55 -17 -188 -25 -295 -8 -107 -20 -242 -25 -300 -5 -58 -14 -163 -20 -235 -6 -71 -15 -166 -20 -210 -6 -44 -10 -99 -10 -121 0 -41 1 -42 40 -48 22 -3 94 -11 160 -16 66 -5 138 -13 159 -16 l39 -6 6 78 c4 44 11 126 16 184 16 172 29 324 45 520 8 102 20 239 26 305 l12 120 131 -12 c72 -6 159 -12 193 -12 34 -1 64 -4 66 -8 4 -8 -2 -91 -22 -318 -6 -66 -17 -201 -26 -300 -8 -99 -20 -243 -27 -320 -7 -77 -12 -169 -13 -205 l0 -65 193 -14 c106 -8 194 -12 197 -10 2 3 11 92 20 199 31 380 35 426 45 540 6 63 15 167 20 230 6 63 15 162 20 220 5 58 14 161 19 229 6 69 14 140 17 158 l6 33 -605 0 -605 0 -5 -22z"/>
 <path d="M2256 567 c-4 -34 -7 -98 -9 -142 l-2 -80 80 -6 c44 -3 132 -10 195 -14 l116 -8 12 110 c7 60 12 123 12 141 0 32 -1 32 -48 32 -26 0 -83 4 -127 9 -44 5 -112 12 -152 15 l-71 6 -6 -63z"/>
 <path d="M4585 390 c-4 -19 -10 -80 -14 -137 l-6 -102 25 -6 c14 -3 79 -10 145 -15 66 -5 143 -12 171 -16 50 -6 51 -6 57 22 4 16 10 79 13 141 l7 112 -34 5 c-19 3 -70 8 -114 11 -44 3 -117 8 -161 12 l-82 6 -7 -33z"/>
 </g>

</svg>