<svg width="2220" height="1287" viewBox="0 0 2220 1287" version="1.1" xmlns="http://www.w3.org/2000/svg" xmlns:xlink="http://www.w3.org/1999/xlink">
<title>SectorPicker</title>
<desc>Created using Figma</desc>
<g id="Canvas" transform="translate(-1079 464)">
<g id="SectorPicker">
<g id="background">
<g id="background">
<use xlink:href="#path0_fill" transform="translate(1674.5 -418)" fill="#FECB93"/>
<mask id="mask0_outline_ins">
<use xlink:href="#path0_fill" fill="white" transform="translate(1674.5 -418)"/>
</mask>
<g mask="url(#mask0_outline_ins)">
<use xlink:href="#path1_stroke_2x" transform="translate(1674.5 -418)"/>
</g>
</g>
<g id="background">
<use xlink:href="#path2_fill" transform="translate(1225 244)" fill="#FECB93"/>
<mask id="mask1_outline_ins">
<use xlink:href="#path2_fill" fill="white" transform="translate(1225 244)"/>
</mask>
<g mask="url(#mask1_outline_ins)">
<use xlink:href="#path3_stroke_2x" transform="translate(1225 244)"/>
</g>
</g>
<g id="background">
<use xlink:href="#path4_fill" transform="translate(1831 476)" fill="#FECB93"/>
<mask id="mask2_outline_ins">
<use xlink:href="#path4_fill" fill="white" transform="translate(1831 476)"/>
</mask>
<g mask="url(#mask2_outline_ins)">
<use xlink:href="#path5_stroke_2x" transform="translate(1831 476)"/>
</g>
</g>
</g>
<g id="sectors">
<g id="kurswand">
<use xlink:href="#path6_fill" transform="translate(1079 212.5)" fill="#1E2A4C"/>
<mask id="mask3_outline_ins">
<use xlink:href="#path6_fill" fill="white" transform="translate(1079 212.5)"/>
</mask>
<g mask="url(#mask3_outline_ins)">
<use xlink:href="#path7_stroke_2x" transform="translate(1079 212.5)"/>
</g>
</g>
<g id="klagemauer">
<use xlink:href="#path8_fill" transform="translate(2324.5 -463.5)" fill="#1E2A4C"/>
<mask id="mask4_outline_ins">
<use xlink:href="#path8_fill" fill="white" transform="translate(2324.5 -463.5)"/>
</mask>
<g mask="url(#mask4_outline_ins)">
<use xlink:href="#path9_stroke_2x" transform="translate(2324.5 -463.5)"/>
</g>
</g>
<g id="starship">
<use xlink:href="#path10_fill" transform="translate(1753 -340.5)" fill="#1E2A4C"/>
<mask id="mask5_outline_ins">
<use xlink:href="#path10_fill" fill="white" transform="translate(1753 -340.5)"/>
</mask>
<g mask="url(#mask5_outline_ins)">
<use xlink:href="#path11_stroke_2x" transform="translate(1753 -340.5)"/>
</g>
</g>
<g id="dune">
<use xlink:href="#path12_fill" transform="translate(2293 -245.5)" fill="#1E2A4C"/>
<mask id="mask6_outline_ins">
<use xlink:href="#path12_fill" fill="white" transform="translate(2293 -245.5)"/>
</mask>
<g mask="url(#mask6_outline_ins)">
<use xlink:href="#path13_stroke_2x" transform="translate(2293 -245.5)"/>
</g>
</g>
<g id="bigboss">
<use xlink:href="#path14_fill" transform="translate(2891 -219.5)" fill="#1E2A4C"/>
<mask id="mask7_outline_ins">
<use xlink:href="#path14_fill" fill="white" transform="translate(2891 -219.5)"/>
</mask>
<g mask="url(#mask7_outline_ins)">
<use xlink:href="#path15_stroke_2x" transform="translate(2891 -219.5)"/>
</g>
</g>
<g id="spektrumfour">
<use xlink:href="#path16_fill" transform="translate(1831 714)" fill="#1E2A4C"/>
<mask id="mask8_outline_ins">
<use xlink:href="#path16_fill" fill="white" transform="translate(1831 714)"/>
</mask>
<g mask="url(#mask8_outline_ins)">
<use xlink:href="#path17_stroke_2x" transform="translate(1831 714)"/>
</g>
</g>
<g id="spektrumthree">
<use xlink:href="#path18_fill" transform="translate(2198 695)" fill="#1E2A4C"/>
<mask id="mask9_outline_ins">
<use xlink:href="#path18_fill" fill="white" transform="translate(2198 695)"/>
</mask>
<g mask="url(#mask9_outline_ins)">
<use xlink:href="#path19_stroke_2x" transform="translate(2198 695)"/>
</g>
</g>
<g id="spektrumtwo">
<use xlink:href="#path20_fill" transform="translate(2566 651)" fill="#1E2A4C"/>
<mask id="mask10_outline_ins">
<use xlink:href="#path20_fill" fill="white" transform="translate(2566 651)"/>
</mask>
<g mask="url(#mask10_outline_ins)">
<use xlink:href="#path21_stroke_2x" transform="translate(2566 651)"/>
</g>
</g>
<g id="spektrumone">
<use xlink:href="#path22_fill" transform="translate(2946 644)" fill="#1E2A4C"/>
<mask id="mask11_outline_ins">
<use xlink:href="#path22_fill" fill="white" transform="translate(2946 644)"/>
</mask>
<g mask="url(#mask11_outline_ins)">
<use xlink:href="#path23_stroke_2x" transform="translate(2946 644)"/>
</g>
</g>
</g>
</g>
</g>
<defs>
<path id="path0_fill" d="M 617.5 0L 660 0L 1068 0L 1198 63L 1281 63L 1569.5 225L 1569.5 702.5L 1429.5 785.5L 765.5 785.5L 481.5 657.5L 353.5 785.5L 51 785.5L 0 735L 0 444.5L 97.5 63L 617.5 63L 617.5 0Z"/>
<path id="path1_stroke_2x" d="M 617.5 0L 617.5 -10L 607.5 -10L 607.5 0L 617.5 0ZM 617.5 63L 617.5 73L 627.5 73L 627.5 63L 617.5 63ZM 97.5 63L 97.5 53L 89.7343 53L 87.8114 60.5239L 97.5 63ZM 0 444.5L -9.68859 442.024L -10 443.242L -10 444.5L 0 444.5ZM 0 735L -10 735L -10 739.171L -7.03615 742.106L 0 735ZM 51 785.5L 43.9639 792.606L 46.8867 795.5L 51 795.5L 51 785.5ZM 353.5 785.5L 353.5 795.5L 357.642 795.5L 360.571 792.571L 353.5 785.5ZM 481.5 657.5L 485.609 648.383L 479.313 645.545L 474.429 650.429L 481.5 657.5ZM 765.5 785.5L 761.391 794.617L 763.351 795.5L 765.5 795.5L 765.5 785.5ZM 1429.5 785.5L 1429.5 795.5L 1432.24 795.5L 1434.6 794.102L 1429.5 785.5ZM 1569.5 702.5L 1574.6 711.102L 1579.5 708.197L 1579.5 702.5L 1569.5 702.5ZM 1569.5 225L 1579.5 225L 1579.5 219.147L 1574.4 216.281L 1569.5 225ZM 1281 63L 1285.9 54.2806L 1283.62 53L 1281 53L 1281 63ZM 1198 63L 1193.64 71.999L 1195.7 73L 1198 73L 1198 63ZM 1068 0L 1072.36 -8.99896L 1070.3 -10L 1068 -10L 1068 0ZM 660 -10L 617.5 -10L 617.5 10L 660 10L 660 -10ZM 607.5 0L 607.5 63L 627.5 63L 627.5 0L 607.5 0ZM 617.5 53L 97.5 53L 97.5 73L 617.5 73L 617.5 53ZM 87.8114 60.5239L -9.68859 442.024L 9.68859 446.976L 107.189 65.4761L 87.8114 60.5239ZM -10 444.5L -10 735L 10 735L 10 444.5L -10 444.5ZM -7.03615 742.106L 43.9639 792.606L 58.0361 778.394L 7.03615 727.894L -7.03615 742.106ZM 51 795.5L 353.5 795.5L 353.5 775.5L 51 775.5L 51 795.5ZM 360.571 792.571L 488.571 664.571L 474.429 650.429L 346.429 778.429L 360.571 792.571ZM 477.391 666.617L 761.391 794.617L 769.609 776.383L 485.609 648.383L 477.391 666.617ZM 765.5 795.5L 1429.5 795.5L 1429.5 775.5L 765.5 775.5L 765.5 795.5ZM 1434.6 794.102L 1574.6 711.102L 1564.4 693.898L 1424.4 776.898L 1434.6 794.102ZM 1579.5 702.5L 1579.5 225L 1559.5 225L 1559.5 702.5L 1579.5 702.5ZM 1574.4 216.281L 1285.9 54.2806L 1276.1 71.7194L 1564.6 233.719L 1574.4 216.281ZM 1281 53L 1198 53L 1198 73L 1281 73L 1281 53ZM 1202.36 54.001L 1072.36 -8.99896L 1063.64 8.99896L 1193.64 71.999L 1202.36 54.001ZM 1068 -10L 660 -10L 660 10L 1068 10L 1068 -10Z"/>
<path id="path2_fill" d="M 307 331L 307 0L 1.03366 0L 0 420L 244.463 420L 307 331Z"/>
<path id="path3_stroke_2x" d="M 307 0L 317 0L 317 -10L 307 -10L 307 0ZM 307 331L 315.182 336.749L 317 334.162L 317 331L 307 331ZM 244.463 420L 244.463 430L 249.658 430L 252.645 425.749L 244.463 420ZM 0 420L -9.99997 419.975L -10.0246 430L 0 430L 0 420ZM 1.03366 0L 1.03366 -10L -8.94176 -10L -8.96631 -0.0246109L 1.03366 0ZM 297 0L 297 331L 317 331L 317 0L 297 0ZM 298.818 325.251L 236.281 414.251L 252.645 425.749L 315.182 336.749L 298.818 325.251ZM 244.463 410L 0 410L 0 430L 244.463 430L 244.463 410ZM 9.99997 420.025L 11.0336 0.0246109L -8.96631 -0.0246109L -9.99997 419.975L 9.99997 420.025ZM 1.03366 10L 307 10L 307 -10L 1.03366 -10L 1.03366 10Z"/>
<path id="path4_fill" d="M 0 0L 0 347L 1412 347L 1412 0L 0 0Z"/>
<path id="path5_stroke_2x" d="M 0 347L -10 347L -10 357L 0 357L 0 347ZM 0 0L 0 -10L -10 -10L -10 0L 0 0ZM 1412 0L 1422 0L 1422 -10L 1412 -10L 1412 0ZM 1412 347L 1412 357L 1422 357L 1422 347L 1412 347ZM 10 347L 10 0L -10 0L -10 347L 10 347ZM 0 10L 1412 10L 1412 -10L 0 -10L 0 10ZM 1402 0L 1402 347L 1422 347L 1422 0L 1402 0ZM 1412 337L 0 337L 0 357L 1412 357L 1412 337Z"/>
<path id="path6_fill" d="M 384 39.5L 384 0L 0 0L 0 598.5L 368 598.5L 368 442L 160 442L 160 39.5L 384 39.5Z"/>
<path id="path7_stroke_2x" d="M 384 0L 394 0L 394 -10L 384 -10L 384 0ZM 384 39.5L 384 49.5L 394 49.5L 394 39.5L 384 39.5ZM 160 39.5L 160 29.5L 150 29.5L 150 39.5L 160 39.5ZM 160 442L 150 442L 150 452L 160 452L 160 442ZM 368 442L 378 442L 378 432L 368 432L 368 442ZM 368 598.5L 368 608.5L 378 608.5L 378 598.5L 368 598.5ZM 0 598.5L -10 598.5L -10 608.5L 0 608.5L 0 598.5ZM 0 0L 0 -10L -10 -10L -10 0L 0 0ZM 374 0L 374 39.5L 394 39.5L 394 0L 374 0ZM 384 29.5L 160 29.5L 160 49.5L 384 49.5L 384 29.5ZM 150 39.5L 150 442L 170 442L 170 39.5L 150 39.5ZM 160 452L 368 452L 368 432L 160 432L 160 452ZM 368 588.5L 0 588.5L 0 608.5L 368 608.5L 368 588.5ZM 10 598.5L 10 0L -10 0L -10 598.5L 10 598.5ZM 0 10L 384 10L 384 -10L 0 -10L 0 10ZM 358 442L 358 598.5L 378 598.5L 378 442L 358 442Z"/>
<path id="path8_fill" d="M 594.5 0L 16.5 0L 0 47L 9.5 63L 46 94.5L 421 87L 540 107L 594.5 54.5L 594.5 0Z"/>
<path id="path9_stroke_2x" d="M 16.5 0L 16.5 -10L 9.41231 -10L 7.06455 -3.31245L 16.5 0ZM 594.5 0L 604.5 0L 604.5 -10L 594.5 -10L 594.5 0ZM 594.5 54.5L 601.438 61.702L 604.5 58.752L 604.5 54.5L 594.5 54.5ZM 540 107L 538.343 116.862L 543.31 117.697L 546.938 114.202L 540 107ZM 421 87L 422.657 77.1383L 421.735 76.9833L 420.8 77.002L 421 87ZM 46 94.5L 39.4665 102.071L 42.3681 104.575L 46.2 104.498L 46 94.5ZM 9.5 63L 0.901453 68.1054L 1.73318 69.5062L 2.9665 70.5706L 9.5 63ZM 0 47L -9.43545 43.6876L -10.9816 48.0918L -8.59855 52.1054L 0 47ZM 16.5 10L 594.5 10L 594.5 -10L 16.5 -10L 16.5 10ZM 584.5 0L 584.5 54.5L 604.5 54.5L 604.5 0L 584.5 0ZM 587.562 47.298L 533.062 99.798L 546.938 114.202L 601.438 61.702L 587.562 47.298ZM 541.657 97.1383L 422.657 77.1383L 419.343 96.8617L 538.343 116.862L 541.657 97.1383ZM 420.8 77.002L 45.8 84.502L 46.2 104.498L 421.2 96.998L 420.8 77.002ZM 52.5335 86.9294L 16.0335 55.4294L 2.9665 70.5706L 39.4665 102.071L 52.5335 86.9294ZM 18.0985 57.8946L 8.59855 41.8946L -8.59855 52.1054L 0.901453 68.1054L 18.0985 57.8946ZM 9.43545 50.3124L 25.9354 3.31245L 7.06455 -3.31245L -9.43545 43.6876L 9.43545 50.3124Z"/>
<path id="path10_fill" d="M 26 562L 0 414L 31.5 343L 10.5 226.5L 94.5 226.5L 146 0L 213.5 0L 228 16L 228 125.5L 336.5 154L 336.5 283.5L 319 343L 269.5 361L 269.5 400L 228 434L 228 507.5L 146 587.5L 26 562Z"/>
<path id="path11_stroke_2x" d="M 0 414L -9.14077 409.945L -10.3763 412.73L -9.84917 415.73L 0 414ZM 26 562L 16.1508 563.73L 17.3188 570.379L 23.9214 571.782L 26 562ZM 146 587.5L 143.921 597.282L 149.154 598.394L 152.983 594.658L 146 587.5ZM 228 507.5L 234.983 514.658L 238 511.715L 238 507.5L 228 507.5ZM 228 434L 221.663 426.265L 218 429.265L 218 434L 228 434ZM 269.5 400L 275.837 407.735L 279.5 404.735L 279.5 400L 269.5 400ZM 269.5 361L 266.083 351.602L 259.5 353.996L 259.5 361L 269.5 361ZM 319 343L 322.417 352.398L 327.167 350.671L 328.594 345.822L 319 343ZM 336.5 283.5L 346.094 286.322L 346.5 284.94L 346.5 283.5L 336.5 283.5ZM 336.5 154L 346.5 154L 346.5 146.287L 339.041 144.328L 336.5 154ZM 228 125.5L 218 125.5L 218 133.213L 225.459 135.172L 228 125.5ZM 228 16L 238 16L 238 12.1429L 235.41 9.28481L 228 16ZM 213.5 0L 220.91 -6.71519L 217.933 -10L 213.5 -10L 213.5 0ZM 146 0L 146 -10L 138.018 -10L 136.249 -2.21714L 146 0ZM 94.5 226.5L 94.5 236.5L 102.482 236.5L 104.251 228.717L 94.5 226.5ZM 10.5 226.5L 10.5 216.5L -1.46374 216.5L 0.658609 228.274L 10.5 226.5ZM 31.5 343L 40.6408 347.055L 41.8862 344.248L 41.3414 341.226L 31.5 343ZM -9.84917 415.73L 16.1508 563.73L 35.8492 560.27L 9.84917 412.27L -9.84917 415.73ZM 23.9214 571.782L 143.921 597.282L 148.079 577.718L 28.0786 552.218L 23.9214 571.782ZM 152.983 594.658L 234.983 514.658L 221.017 500.342L 139.017 580.342L 152.983 594.658ZM 238 507.5L 238 434L 218 434L 218 507.5L 238 507.5ZM 234.337 441.735L 275.837 407.735L 263.163 392.265L 221.663 426.265L 234.337 441.735ZM 279.5 400L 279.5 361L 259.5 361L 259.5 400L 279.5 400ZM 272.917 370.398L 322.417 352.398L 315.583 333.602L 266.083 351.602L 272.917 370.398ZM 328.594 345.822L 346.094 286.322L 326.906 280.678L 309.406 340.178L 328.594 345.822ZM 346.5 283.5L 346.5 154L 326.5 154L 326.5 283.5L 346.5 283.5ZM 339.041 144.328L 230.541 115.828L 225.459 135.172L 333.959 163.672L 339.041 144.328ZM 238 125.5L 238 16L 218 16L 218 125.5L 238 125.5ZM 235.41 9.28481L 220.91 -6.71519L 206.09 6.71519L 220.59 22.7152L 235.41 9.28481ZM 213.5 -10L 146 -10L 146 10L 213.5 10L 213.5 -10ZM 136.249 -2.21714L 84.7489 224.283L 104.251 228.717L 155.751 2.21714L 136.249 -2.21714ZM 94.5 216.5L 10.5 216.5L 10.5 236.5L 94.5 236.5L 94.5 216.5ZM 0.658609 228.274L 21.6586 344.774L 41.3414 341.226L 20.3414 224.726L 0.658609 228.274ZM 22.3592 338.945L -9.14077 409.945L 9.14077 418.055L 40.6408 347.055L 22.3592 338.945Z"/>
<path id="path12_fill" d="M 313.5 126L 231.5 52.5L 38.5 0L 0 52.5L 82 386L 99 398.5L 323 500L 359 506L 400 482L 313.5 126Z"/>
<path id="path13_stroke_2x" d="M 231.5 52.5L 238.175 45.0535L 236.411 43.4724L 234.125 42.8506L 231.5 52.5ZM 313.5 126L 323.217 123.639L 322.485 120.624L 320.175 118.554L 313.5 126ZM 400 482L 405.052 490.63L 411.474 486.871L 409.717 479.639L 400 482ZM 359 506L 357.356 515.864L 360.927 516.459L 364.052 514.63L 359 506ZM 323 500L 318.873 509.109L 320.065 509.649L 321.356 509.864L 323 500ZM 99 398.5L 93.0761 406.557L 93.9193 407.177L 94.8727 407.609L 99 398.5ZM 82 386L 72.2892 388.388L 73.1549 391.909L 76.0761 394.057L 82 386ZM 0 52.5L -8.06405 46.5864L -10.8259 50.3525L -9.71077 54.8877L 0 52.5ZM 38.5 0L 41.1248 -9.64937L 34.4975 -11.4521L 30.436 -5.91364L 38.5 0ZM 224.825 59.9465L 306.825 133.446L 320.175 118.554L 238.175 45.0535L 224.825 59.9465ZM 303.783 128.361L 390.283 484.361L 409.717 479.639L 323.217 123.639L 303.783 128.361ZM 394.948 473.37L 353.948 497.37L 364.052 514.63L 405.052 490.63L 394.948 473.37ZM 360.644 496.136L 324.644 490.136L 321.356 509.864L 357.356 515.864L 360.644 496.136ZM 327.127 490.891L 103.127 389.391L 94.8727 407.609L 318.873 509.109L 327.127 490.891ZM 104.924 390.443L 87.9239 377.943L 76.0761 394.057L 93.0761 406.557L 104.924 390.443ZM 91.7108 383.612L 9.71077 50.1123L -9.71077 54.8877L 72.2892 388.388L 91.7108 383.612ZM 8.06405 58.4136L 46.564 5.91364L 30.436 -5.91364L -8.06405 46.5864L 8.06405 58.4136ZM 35.8752 9.64937L 228.875 62.1494L 234.125 42.8506L 41.1248 -9.64937L 35.8752 9.64937Z"/>
<path id="path14_fill" d="M 232.5 69.5L 66 0L 15.5 10.5L 0 349.5L 61 473L 227 433L 250 414L 294.5 340L 232.5 69.5Z"/>
<path id="path15_stroke_2x" d="M 66 0L 69.8521 -9.22831L 66.9952 -10.4208L 63.9643 -9.79061L 66 0ZM 232.5 69.5L 242.247 67.2659L 241.098 62.2528L 236.352 60.2717L 232.5 69.5ZM 294.5 340L 303.07 345.153L 305.148 341.697L 304.247 337.766L 294.5 340ZM 250 414L 256.369 421.71L 257.688 420.62L 258.57 419.153L 250 414ZM 227 433L 229.343 442.722L 231.588 442.181L 233.369 440.71L 227 433ZM 61 473L 52.0341 477.429L 55.5732 484.594L 63.3426 482.722L 61 473ZM 0 349.5L -9.98956 349.043L -10.1073 351.618L -8.96595 353.929L 0 349.5ZM 15.5 10.5L 13.4643 0.70939L 5.86496 2.28946L 5.51044 10.0433L 15.5 10.5ZM 62.1479 9.22831L 228.648 78.7283L 236.352 60.2717L 69.8521 -9.22831L 62.1479 9.22831ZM 222.753 71.7341L 284.753 342.234L 304.247 337.766L 242.247 67.2659L 222.753 71.7341ZM 285.93 334.847L 241.43 408.847L 258.57 419.153L 303.07 345.153L 285.93 334.847ZM 243.631 406.29L 220.631 425.29L 233.369 440.71L 256.369 421.71L 243.631 406.29ZM 224.657 423.278L 58.6574 463.278L 63.3426 482.722L 229.343 442.722L 224.657 423.278ZM 69.9659 468.571L 8.96595 345.071L -8.96595 353.929L 52.0341 477.429L 69.9659 468.571ZM 9.98956 349.957L 25.4896 10.9567L 5.51044 10.0433L -9.98956 349.043L 9.98956 349.957ZM 17.5357 20.2906L 68.0357 9.79061L 63.9643 -9.79061L 13.4643 0.70939L 17.5357 20.2906Z"/>
<path id="path16_fill" d="M 355 0L 0 0L 0 109L 355 109L 355 0Z"/>
<path id="path17_stroke_2x" d="M 0 0L 0 -10L -10 -10L -10 0L 0 0ZM 355 0L 365 0L 365 -10L 355 -10L 355 0ZM 355 109L 355 119L 365 119L 365 109L 355 109ZM 0 109L -10 109L -10 119L 0 119L 0 109ZM 0 10L 355 10L 355 -10L 0 -10L 0 10ZM 345 0L 345 109L 365 109L 365 0L 345 0ZM 355 99L 0 99L 0 119L 355 119L 355 99ZM 10 109L 10 0L -10 0L -10 109L 10 109Z"/>
<path id="path18_fill" d="M 355 128L 0 128L 0 0L 355 0L 355 128Z"/>
<path id="path19_stroke_2x" d="M 0 128L -10 128L -10 138L 0 138L 0 128ZM 355 128L 355 138L 365 138L 365 128L 355 128ZM 355 0L 365 0L 365 -10L 355 -10L 355 0ZM 0 0L 0 -10L -10 -10L -10 0L 0 0ZM 0 138L 355 138L 355 118L 0 118L 0 138ZM 365 128L 365 0L 345 0L 345 128L 365 128ZM 355 -10L 0 -10L 0 10L 355 10L 355 -10ZM -10 0L -10 128L 10 128L 10 0L -10 0Z"/>
<path id="path20_fill" d="M 366 172L 0 172L 0 0L 366 0L 366 172Z"/>
<path id="path21_stroke_2x" d="M 0 172L -10 172L -10 182L 0 182L 0 172ZM 366 172L 366 182L 376 182L 376 172L 366 172ZM 366 0L 376 0L 376 -10L 366 -10L 366 0ZM 0 0L 0 -10L -10 -10L -10 0L 0 0ZM 0 182L 366 182L 366 162L 0 162L 0 182ZM 376 172L 376 0L 356 0L 356 172L 376 172ZM 366 -10L 0 -10L 0 10L 366 10L 366 -10ZM -10 0L -10 172L 10 172L 10 0L -10 0Z"/>
<path id="path22_fill" d="M 353 179L 0 179L 0 7L 264.75 0L 353 179Z"/>
<path id="path23_stroke_2x" d="M 0 179L -10 179L -10 189L 0 189L 0 179ZM 353 179L 353 189L 369.079 189L 361.969 174.578L 353 179ZM 264.75 0L 273.719 -4.42196L 270.887 -10.1658L 264.486 -9.99651L 264.75 0ZM 0 7L -0.264308 -2.99651L -10 -2.73909L -10 7L 0 7ZM 0 189L 353 189L 353 169L 0 169L 0 189ZM 361.969 174.578L 273.719 -4.42196L 255.781 4.42196L 344.031 183.422L 361.969 174.578ZM 264.486 -9.99651L -0.264308 -2.99651L 0.264308 16.9965L 265.014 9.99651L 264.486 -9.99651ZM -10 7L -10 179L 10 179L 10 7L -10 7Z"/>
</defs>
</svg>
